<?xml version="1.0" standalone="no"?>
<!DOCTYPE svg PUBLIC "-//W3C//DTD SVG 20010904//EN"
 "http://www.w3.org/TR/2001/REC-SVG-20010904/DTD/svg10.dtd">
<svg version="1.0" xmlns="http://www.w3.org/2000/svg"
 width="512.000000pt" height="512.000000pt" viewBox="0 0 512.000000 512.000000"
 preserveAspectRatio="xMidYMid meet">

<g transform="translate(0.000000,512.000000) scale(0.100000,-0.100000)"
fill="rgb(192, 192, 192)" stroke="none">
<path d="M2375 5110 c-356 -28 -714 -131 -1015 -292 -675 -361 -1154 -1004
-1305 -1753 -39 -194 -48 -288 -48 -510 0 -163 5 -242 22 -350 50 -335 150
-629 303 -897 132 -230 239 -370 432 -563 397 -396 903 -644 1476 -721 162
-22 471 -23 635 -1 798 104 1491 561 1894 1251 322 553 425 1216 285 1846
-232 1042 -1100 1836 -2159 1974 -142 19 -392 27 -520 16z m-819 -967 c34 -11
67 -35 110 -77 71 -72 94 -126 94 -226 0 -100 -23 -154 -94 -226 -72 -71 -126
-94 -226 -94 -100 0 -154 23 -226 94 -71 72 -94 126 -94 226 0 100 23 154 94
226 40 39 77 66 106 77 60 21 174 21 236 0z m204 -1903 l0 -1120 -320 0 -320
0 0 1120 0 1120 320 0 320 0 0 -1120z m961 978 l0 -143 21 54 c38 99 128 169
263 207 91 25 368 31 471 10 224 -45 375 -185 452 -418 63 -192 65 -224 69
-1055 l4 -753 -320 0 -320 0 -3 683 c-4 776 0 740 -88 828 -59 59 -121 81
-230 81 -149 0 -246 -57 -292 -170 l-23 -57 -3 -682 -3 -683 -320 0 -319 0 0
1120 0 1120 320 0 320 0 1 -142z"/>
</g>
</svg>
